<svg width="430" height="704" viewBox="0 0 430 704" fill="none" xmlns="http://www.w3.org/2000/svg">
<path fill-rule="evenodd" clip-rule="evenodd" d="M293.284 0.787872L429.866 0.787842V703.212L293.284 703.212C293.284 660.107 258.341 625.163 215.235 625.163C172.13 625.163 137.187 660.107 137.187 703.212H0.60498V0.787872L137.187 0.787894C137.187 43.8931 172.13 78.8368 215.235 78.8368C258.341 78.8368 293.284 43.8931 293.284 0.787872Z" fill="#FA3B6A"/>
<path d="M429.866 673.167L290.983 684.204C282.539 650.223 251.828 625.039 215.235 625.039C194.441 625.039 175.546 633.171 161.557 646.428C145.879 628.253 135.633 605.106 133.586 579.344L129.467 527.509C124.347 463.094 172.416 406.726 236.83 401.607L429.866 386.265V673.167Z" fill="#9E60ED"/>
<path d="M137.187 0.787842C137.187 43.893 172.131 78.8367 215.236 78.8367C258.341 78.8364 293.285 43.8929 293.285 0.787842H344.567C357.453 18.0366 364.5 36.7161 364.5 56.2214C364.5 143.482 223.47 214.221 49.5005 214.221C32.8696 214.221 16.5394 213.572 0.60498 212.327V0.787842H137.187Z" fill="#D22ED4"/>
</svg>
